<svg xmlns="http://www.w3.org/2000/svg" xmlns:xlink="http://www.w3.org/1999/xlink" width="500" zoomAndPan="magnify" viewBox="0 0 375 374.999991" height="500" preserveAspectRatio="xMidYMid meet" version="1.0"><path fill="#000000" d="M 77.214844 52.082031 C 69.726562 52.082031 63.28125 57.226562 61.589844 64.519531 L 37.109375 169.464844 C 50.457031 165.429688 68.554688 161.457031 88.347656 161.457031 C 109.375 161.457031 128.582031 165.949219 142.253906 170.246094 C 149.152344 172.394531 154.816406 174.609375 158.789062 176.238281 C 160.808594 177.082031 162.371094 177.800781 163.542969 178.320312 C 164.128906 178.582031 164.582031 178.777344 164.910156 178.972656 L 165.300781 179.167969 L 165.429688 179.230469 L 165.496094 179.230469 C 165.496094 179.230469 165.496094 179.230469 161.394531 187.5 L 165.496094 179.230469 C 169.269531 181.121094 172.265625 183.984375 174.285156 187.5 L 200.714844 187.5 C 202.734375 184.050781 205.730469 181.121094 209.503906 179.230469 L 213.605469 187.5 C 209.503906 179.230469 209.503906 179.230469 209.503906 179.230469 L 209.570312 179.230469 L 209.699219 179.167969 L 210.089844 178.972656 C 210.417969 178.839844 210.871094 178.582031 211.457031 178.320312 C 212.628906 177.800781 214.191406 177.082031 216.210938 176.238281 C 220.183594 174.542969 225.847656 172.394531 232.746094 170.246094 C 246.417969 165.949219 265.558594 161.457031 286.652344 161.457031 C 306.445312 161.457031 324.542969 165.429688 337.890625 169.464844 L 313.410156 64.519531 C 311.71875 57.226562 305.207031 52.082031 297.785156 52.082031 C 295.769531 52.082031 293.75 52.472656 291.796875 53.253906 L 271.417969 61.394531 C 263.410156 64.582031 254.296875 60.675781 251.105469 52.667969 C 247.917969 44.660156 251.824219 35.546875 259.832031 32.355469 L 280.207031 24.21875 C 285.808594 22.003906 291.730469 20.832031 297.785156 20.832031 C 319.792969 20.832031 338.867188 36.003906 343.878906 57.421875 L 372.460938 179.816406 C 373.566406 184.570312 374.347656 189.386719 374.738281 194.207031 C 374.933594 195.441406 375.066406 196.679688 375.066406 197.917969 L 375.066406 239.582031 C 375.066406 279.882812 342.449219 312.5 302.148438 312.5 L 273.242188 312.5 C 234.570312 312.5 202.605469 282.292969 200.457031 243.621094 L 199.609375 229.167969 L 175.390625 229.167969 L 174.609375 243.621094 C 172.460938 282.292969 140.496094 312.5 101.757812 312.5 L 72.917969 312.5 C 32.617188 312.5 0 279.882812 0 239.582031 L 0 197.917969 C 0 196.679688 0.128906 195.441406 0.324219 194.207031 C 0.714844 189.386719 1.496094 184.570312 2.605469 179.816406 L 31.183594 57.421875 C 36.132812 36.003906 55.207031 20.832031 77.214844 20.832031 C 83.203125 20.832031 89.191406 22.003906 94.792969 24.21875 L 115.167969 32.355469 C 123.175781 35.546875 127.082031 44.660156 123.894531 52.667969 C 120.703125 60.675781 111.589844 64.582031 103.582031 61.394531 L 83.203125 53.253906 C 81.316406 52.472656 79.296875 52.082031 77.214844 52.082031 Z M 41.667969 211.847656 L 41.667969 239.582031 C 41.667969 256.835938 55.664062 270.832031 72.917969 270.832031 L 101.757812 270.832031 C 118.359375 270.832031 132.03125 257.878906 132.941406 241.339844 L 134.570312 211.652344 C 133.074219 211.132812 131.378906 210.546875 129.6875 210.027344 C 118.488281 206.511719 103.710938 203.191406 88.28125 203.191406 C 72.851562 203.191406 58.203125 206.511719 47.136719 210.027344 C 45.117188 210.675781 43.292969 211.261719 41.601562 211.914062 Z M 333.332031 239.582031 L 333.332031 211.847656 C 331.640625 211.261719 329.753906 210.613281 327.800781 209.960938 C 316.730469 206.445312 302.082031 203.125 286.652344 203.125 C 271.222656 203.125 256.445312 206.445312 245.246094 209.960938 C 243.488281 210.480469 241.863281 211.066406 240.363281 211.589844 L 241.992188 241.277344 C 242.902344 257.8125 256.640625 270.769531 273.175781 270.769531 L 302.082031 270.769531 C 319.335938 270.769531 333.332031 256.769531 333.332031 239.519531 Z M 333.332031 239.582031 " fill-opacity="1" fill-rule="nonzero"/><path stroke-linecap="butt" transform="matrix(0.530638, 0.530638, -0.53033, 0.53033, 49.165775, 25.836328)" fill="none" stroke-linejoin="miter" d="M 0.00169897 21.998897 L 565.683137 21.998897 " stroke="#ffffff" stroke-width="44" stroke-opacity="1" stroke-miterlimit="4"/><path stroke-linecap="butt" transform="matrix(0.525874, 0.534133, -0.534446, 0.526182, 34.383774, 29.081332)" fill="none" stroke-linejoin="miter" d="M -0.000803142 16.00035 L 561.326826 16.001049 " stroke="#000000" stroke-width="32" stroke-opacity="1" stroke-miterlimit="4"/></svg>